<svg width="24" height="24" viewBox="0 0 24 24" fill="none" xmlns="http://www.w3.org/2000/svg">
<path fill-rule="evenodd" clip-rule="evenodd" d="M1.25 16.5C1.25 13.0482 4.04822 10.25 7.5 10.25C10.9518 10.25 13.75 13.0482 13.75 16.5C13.75 19.9518 10.9518 22.75 7.5 22.75C6.4644 22.75 5.48586 22.4976 4.6244 22.0505L2.41228 22.4623C2.16923 22.5076 1.91949 22.4301 1.74467 22.2553C1.56985 22.0805 1.49242 21.8308 1.53767 21.5877L1.94953 19.3756C1.50244 18.5141 1.25 17.5356 1.25 16.5Z" fill="white"/>
<path d="M14 1.25C18.8323 1.25023 22.75 5.16765 22.75 10C22.75 11.4917 22.3754 12.8985 21.7158 14.1289L22.3369 17.4629C22.3821 17.7058 22.3045 17.9551 22.1299 18.1299C21.9551 18.3047 21.705 18.3822 21.4619 18.3369L18.1279 17.7168C17.2913 18.1652 16.3731 18.4821 15.4014 18.6387L15.3857 18.6406H15.3828L15.3789 18.6416L15.3643 18.6436L15.3164 18.6494C15.2758 18.6543 15.2176 18.6609 15.1445 18.668C15.0846 18.6738 15.0143 18.6794 14.9346 18.6855C15.1381 17.9922 15.25 17.2592 15.25 16.5C15.25 12.2199 11.7801 8.75018 7.5 8.75C6.73957 8.75 6.00491 8.8613 5.31055 9.06543C5.31239 9.03992 5.31266 9.0157 5.31445 8.99316C5.32013 8.92193 5.32607 8.86575 5.33008 8.82617C5.34418 8.69298 5.32966 8.78491 5.33691 8.75879C5.9013 4.4993 9.73447 1.25 14 1.25Z" fill="white"/>
</svg>
