<svg width="20" height="20" viewBox="0 0 20 20" fill="none" xmlns="http://www.w3.org/2000/svg">
<path d="M17.5 10V9.16667C17.5 6.40524 15.2614 4.16667 12.5 4.16667H6.66667C4.36548 4.16667 2.5 6.03215 2.5 8.33333V8.33333C2.5 10.6345 4.36548 12.5 6.66667 12.5H10" stroke="#0F172A" stroke-width="1.5" stroke-linecap="round" stroke-linejoin="round"/>
<path d="M16.7701 15.9319C17.2211 15.4797 17.5 14.8557 17.5 14.1665C17.5 12.7858 16.3807 11.6665 15 11.6665C13.6193 11.6665 12.5 12.7858 12.5 14.1665C12.5 15.5472 13.6193 16.6665 15 16.6665C15.6916 16.6665 16.3175 16.3857 16.7701 15.9319ZM16.7701 15.9319L18.3333 17.4998" stroke="#0F172A" stroke-width="1.5" stroke-linecap="round" stroke-linejoin="round"/>
</svg>
