<svg width="17" height="17" viewBox="0 0 17 17" fill="none" xmlns="http://www.w3.org/2000/svg">
<path d="M6.16732 13.1668H5.83398C3.16732 13.1668 1.83398 12.5002 1.83398 9.16683V5.8335C1.83398 3.16683 3.16732 1.8335 5.83398 1.8335H11.1673C13.834 1.8335 15.1673 3.16683 15.1673 5.8335V9.16683C15.1673 11.8335 13.834 13.1668 11.1673 13.1668H10.834C10.6273 13.1668 10.4273 13.2668 10.3007 13.4335L9.30065 14.7668C8.86065 15.3535 8.14065 15.3535 7.70065 14.7668L6.70065 13.4335C6.59398 13.2868 6.34732 13.1668 6.16732 13.1668Z" stroke="black" stroke-width="1.5" stroke-miterlimit="10" stroke-linecap="round" stroke-linejoin="round"/>
<path d="M11.1637 7.83333H11.1696" stroke="black" stroke-width="2" stroke-linecap="round" stroke-linejoin="round"/>
<path d="M8.49764 7.83333H8.50363" stroke="black" stroke-width="2" stroke-linecap="round" stroke-linejoin="round"/>
<path d="M5.82967 7.83333H5.83566" stroke="black" stroke-width="2" stroke-linecap="round" stroke-linejoin="round"/>
</svg>
