<svg width="20" height="20" viewBox="0 0 20 20" fill="none" xmlns="http://www.w3.org/2000/svg">
<path d="M2.05389 2.8961C2.23334 2.71302 2.50608 2.65798 2.74237 2.75743L18.5754 9.42442C18.807 9.52195 18.958 9.74831 18.9582 9.99962C18.9582 10.2511 18.8071 10.4782 18.5754 10.5758L2.74237 17.2428C2.50614 17.3422 2.23332 17.2871 2.05389 17.1041C1.8745 16.921 1.82474 16.6469 1.92889 16.4127L4.50604 10.6246H10.8332C11.1784 10.6246 11.4582 10.3448 11.4582 9.99962C11.458 9.65461 11.1782 9.37462 10.8332 9.37462H4.50604L1.92889 3.58751C1.82465 3.35327 1.87445 3.07924 2.05389 2.8961Z" fill="#E2E8F0"/>
</svg>
